<svg width="60" height="60" viewBox="0 0 60 60" fill="none" xmlns="http://www.w3.org/2000/svg">
<rect width="60" height="60" fill="#943A1C"/>
<path d="M28.4431 49.0906C28.0683 46.8759 27.0802 44.4909 25.4788 41.9355C23.8774 39.346 21.5946 36.944 18.6304 34.7293C15.7002 32.5146 12.77 31.1007 9.83984 30.4874V28.3408C12.7359 27.6594 15.5128 26.3987 18.1704 24.5589C20.8621 22.6849 23.1108 20.4362 24.9166 17.8126C26.7565 15.121 27.932 12.4634 28.4431 9.83984H30.5896C30.8962 11.5434 31.5095 13.2981 32.4295 15.1039C33.3494 16.8757 34.5249 18.5793 35.9559 20.2147C37.421 21.8161 39.0564 23.2641 40.8622 24.5589C43.5539 26.4669 46.2967 27.7275 49.0906 28.3408V30.4874C47.2166 30.8622 45.2745 31.6288 43.2643 32.7872C41.2881 33.9457 39.4483 35.3256 37.7447 36.9269C36.0411 38.4942 34.6441 40.1467 33.5538 41.8844C31.9525 44.4398 30.9644 46.8418 30.5896 49.0906H28.4431Z" fill="#F2EBE3"/>
</svg>
